<?xml version="1.0" encoding="UTF-8" standalone="no"?>
<!-- Created with Inkscape (http://www.inkscape.org/) -->

<svg
   xmlns:dc="http://purl.org/dc/elements/1.1/"
   xmlns:cc="http://creativecommons.org/ns#"
   xmlns:rdf="http://www.w3.org/1999/02/22-rdf-syntax-ns#"
   xmlns:svg="http://www.w3.org/2000/svg"
   xmlns="http://www.w3.org/2000/svg"
   xmlns:sodipodi="http://sodipodi.sourceforge.net/DTD/sodipodi-0.dtd"
   xmlns:inkscape="http://www.inkscape.org/namespaces/inkscape"
   id="svg8"
   version="1.1"
   viewBox="0 0 52.520252 40.526031"
   height="40.526031mm"
   width="52.520252mm"
   inkscape:version="0.92.4 (5da689c313, 2019-01-14)"
   sodipodi:docname="abtast.svg">
  <defs
     id="defs2">
    <inkscape:path-effect
       effect="bspline"
       id="path-effect4848"
       is_visible="true"
       weight="33.333333"
       steps="2"
       helper_size="0"
       apply_no_weight="true"
       apply_with_weight="true"
       only_selected="false" />
    <inkscape:path-effect
       effect="bspline"
       id="path-effect4844"
       is_visible="true"
       weight="33.333333"
       steps="2"
       helper_size="0"
       apply_no_weight="true"
       apply_with_weight="true"
       only_selected="false" />
  </defs>
  <sodipodi:namedview
     id="base"
     pagecolor="#ffffff"
     bordercolor="#666666"
     borderopacity="1.0"
     inkscape:pageopacity="0.0"
     inkscape:pageshadow="2"
     inkscape:zoom="3.959798"
     inkscape:cx="62.677227"
     inkscape:cy="87.914375"
     inkscape:document-units="mm"
     inkscape:current-layer="layer1"
     showgrid="false"
     inkscape:window-width="1920"
     inkscape:window-height="1008"
     inkscape:window-x="0"
     inkscape:window-y="34"
     inkscape:window-maximized="1"
     inkscape:snap-global="false"
     fit-margin-top="1"
     fit-margin-left="1"
     fit-margin-right="1"
     fit-margin-bottom="1">
    <inkscape:grid
       type="xygrid"
       id="grid38"
       originx="-82.211457"
       originy="-257.24219" />
  </sodipodi:namedview>
  <metadata
     id="metadata5">
    <rdf:RDF>
      <cc:Work
         rdf:about="">
        <dc:format>image/svg+xml</dc:format>
        <dc:type
           rdf:resource="http://purl.org/dc/dcmitype/StillImage" />
        <dc:title></dc:title>
      </cc:Work>
    </rdf:RDF>
  </metadata>
  <g
     inkscape:label="Ebene 1"
     inkscape:groupmode="layer"
     id="layer1"
     transform="translate(-82.211458,0.76823173)">
    <path
       style="fill:none;stroke:#f93000;stroke-width:0.29925266px;stroke-linecap:butt;stroke-linejoin:miter;stroke-opacity:1"
       d="m 119.05746,16.412966 c 0.0498,-1.610134 2.6e-4,-3.451073 0,-5.176092"
       id="path4680-5-9"
       inkscape:connector-curvature="0" />
    <path
       style="fill:none;stroke:#f93000;stroke-width:0.22564109px;stroke-linecap:butt;stroke-linejoin:miter;stroke-opacity:1"
       d="m 107.13011,14.105338 c 0.0519,-0.880268 2.8e-4,-1.88672 0,-2.829796"
       id="path4680-5-5"
       inkscape:connector-curvature="0" />
    <path
       style="fill:none;stroke:#f93000;stroke-width:0.29851732px;stroke-linecap:butt;stroke-linejoin:miter;stroke-opacity:1"
       d="m 115.05076,17.819623 c 0.0394,-2.02839 2e-4,-4.34754 0,-6.52066"
       id="path4680-5-2"
       inkscape:connector-curvature="0" />
    <path
       style="fill:none;stroke:#f93000;stroke-width:0.31237078px;stroke-linecap:butt;stroke-linejoin:miter;stroke-opacity:1"
       d="m 111.10627,16.914783 c 0.0495,-1.766629 2.5e-4,-3.7865 0,-5.679183"
       id="path4680-5-6"
       inkscape:connector-curvature="0" />
    <path
       style="fill:none;stroke:#f93000;stroke-width:0.14711347px;stroke-linecap:butt;stroke-linejoin:miter;stroke-opacity:1"
       d="m 103.25425,10.242874 c 0.0538,0.360186 2.8e-4,0.772004 0,1.157891"
       id="path4680-5-3"
       inkscape:connector-curvature="0" />
    <path
       style="fill:none;stroke:#f93000;stroke-width:0.27664506px;stroke-linecap:butt;stroke-linejoin:miter;stroke-opacity:1"
       d="m 99.245968,11.182873 c 0.05037,-1.3598066 2.61e-4,-2.9145362 0,-4.3713671"
       id="path4680-5"
       inkscape:connector-curvature="0" />
    <path
       style="fill:none;stroke:#f93000;stroke-width:0.26458332px;stroke-linecap:butt;stroke-linejoin:miter;stroke-opacity:1"
       d="M 95.248176,11.255457 V 4.8743975"
       id="path4700"
       inkscape:connector-curvature="0" />
    <path
       style="fill:none;stroke:#f93000;stroke-width:0.26458332px;stroke-linecap:butt;stroke-linejoin:miter;stroke-opacity:1"
       d="M 91.339359,11.255457 V 5.1082582"
       id="path4698"
       inkscape:connector-curvature="0" />
    <path
       style="fill:none;stroke:#f93000;stroke-width:0.25932625px;stroke-linecap:butt;stroke-linejoin:miter;stroke-opacity:1"
       d="m 87.312465,11.249795 c 0.0509,-1.182409 2.64e-4,-2.5343108 0,-3.8010863"
       id="path4680"
       inkscape:connector-curvature="0" />
    <path
       id="path4624"
       title="sin(x)"
       d="m 83.34375,11.249991 h 50.27083 M 83.34375,17.864574 V 4.6354084 m 0,6.6145826 c 0.140815,-0.140814 0.281629,-0.281629 0.422444,-0.422156 0.140815,-0.140528 0.281629,-0.280768 0.422444,-0.420436 0.140815,-0.139668 0.281629,-0.278761 0.422444,-0.4169999 C 84.751897,9.8521603 84.892711,9.7147809 85.033526,9.578535 85.174341,9.4422892 85.315155,9.3071837 85.45597,9.1734862 85.596784,9.0397888 85.737599,8.907508 85.878414,8.7769042 86.019228,8.6463004 86.160043,8.5173837 86.300858,8.390406 86.441672,8.2634283 86.582487,8.1384014 86.723302,8.0155676 86.864116,7.8927337 87.004931,7.7721063 87.145746,7.6539172 87.28656,7.5357281 87.427375,7.419992 87.56819,7.3069296 c 0.140814,-0.1130625 0.281629,-0.2234353 0.422444,-0.3309102 0.140814,-0.1074748 0.281629,-0.2120343 0.422444,-0.3134833 0.140814,-0.101449 0.281629,-0.1997688 0.422444,-0.2947783 0.140814,-0.095009 0.281629,-0.1866888 0.422444,-0.2748714 0.140814,-0.088183 0.281629,-0.1728476 0.422443,-0.2538437 0.140815,-0.080996 0.28163,-0.1583016 0.422444,-0.231781 0.140815,-0.073479 0.28163,-0.1431101 0.422444,-0.2087732 0.140815,-0.065663 0.28163,-0.1273351 0.422444,-0.1849142 0.140815,-0.057579 0.28163,-0.1110408 0.422444,-0.1603011 0.140815,-0.04926 0.28163,-0.094294 0.422444,-0.1350345 0.140815,-0.040741 0.28163,-0.077163 0.422444,-0.1092173 0.140815,-0.032055 0.28163,-0.059716 0.422444,-0.082955 0.140815,-0.023238 0.28163,-0.042027 0.422444,-0.056354 0.140815,-0.014327 0.28163,-0.024166 0.422444,-0.029523 0.140815,-0.00536 0.28163,-0.00621 0.422444,-0.00257 0.140815,0.00363 0.281629,0.011778 0.422444,0.024389 0.140815,0.012611 0.281629,0.029715 0.422444,0.051251 0.140815,0.021536 0.281629,0.04753 0.422444,0.077904 0.140815,0.030373 0.281629,0.065152 0.422444,0.1042394 0.140815,0.039087 0.281629,0.082509 0.422444,0.1301498 0.140815,0.047641 0.281629,0.099528 0.422444,0.1555295 0.140815,0.056001 0.281629,0.116142 0.422444,0.180275 0.140815,0.064133 0.281629,0.1322823 0.422444,0.2042854 0.140815,0.072003 0.281629,0.1478832 0.422444,0.2274629 0.140815,0.07958 0.281629,0.1628812 0.422444,0.249713 0.140814,0.086832 0.281629,0.177215 0.422444,0.2709448 0.140814,0.09373 0.281629,0.1908262 0.422444,0.2910719 0.140814,0.1002457 0.281629,0.2036594 0.422444,0.3100122 0.140814,0.1063527 0.281629,0.2156621 0.422444,0.3276884 0.140814,0.1120262 0.281625,0.2267856 0.422445,0.3440285 0.14081,0.1172429 0.28163,0.2369843 0.42244,0.3589658 0.14082,0.1219816 0.28163,0.2462167 0.42245,0.3724396 0.14081,0.1262228 0.28163,0.2544452 0.42244,0.3843946 0.14082,0.1299494 0.28163,0.2616362 0.42244,0.3947824 0.14082,0.1331462 0.28163,0.2677604 0.42245,0.4035605 0.14081,0.1358 0.28163,0.2727928 0.42244,0.410693 0.14082,0.1378999 0.28163,0.2767129 0.42245,0.4161509 0.14081,0.139438 0.28163,0.279505 0.42244,0.419912 0.14082,0.140407 0.28163,0.281157 0.42244,0.421961 0.14082,0.140805 0.28163,0.281663 0.42245,0.42229 0.14081,0.140627 0.28163,0.28102 0.42244,0.420897 0.14082,0.139876 0.28163,0.279231 0.42245,0.417787 0.14081,0.138555 0.28163,0.276304 0.42244,0.412973 0.14081,0.13667 0.28163,0.272252 0.42244,0.406478 0.14082,0.134225 0.28163,0.267087 0.42245,0.398322 0.14081,0.131236 0.28163,0.260835 0.42244,0.388545 0.14082,0.127709 0.28163,0.253518 0.42245,0.377182 0.14081,0.123663 0.28163,0.245168 0.42244,0.364281 0.14081,0.119112 0.28163,0.235819 0.42244,0.349895 0.14082,0.114077 0.28163,0.225508 0.42245,0.334083 0.14081,0.108575 0.28163,0.214277 0.42244,0.316908 0.14082,0.102631 0.28163,0.202172 0.42245,0.298441 0.14081,0.09627 0.28163,0.189244 0.42244,0.278757 0.14081,0.08951 0.28163,0.175544 0.42244,0.257937 0.14082,0.08239 0.28163,0.161127 0.42245,0.236064 0.14081,0.07494 0.28163,0.146055 0.42244,0.21323 0.14082,0.06718 0.28163,0.130386 0.42245,0.189526 0.14081,0.05914 0.28163,0.114186 0.42244,0.165049 0.14081,0.05086 0.28163,0.09752 0.42244,0.1399 0.14082,0.04238 0.28163,0.08046 0.42245,0.114178 0.14081,0.03372 0.28163,0.06306 0.42244,0.08799 0.14082,0.02493 0.28163,0.04542 0.42245,0.06145 0.14081,0.01603 0.28162,0.02758 0.42244,0.03465 0.14081,0.0071 0.28163,0.0096 0.42244,0.0077 0.14082,-0.0019 0.28163,-0.0083 0.42245,-0.01925 0.14081,-0.0109 0.28163,-0.0263 0.42244,-0.04614 0.14082,-0.01984 0.28163,-0.04415 0.42245,-0.07284 0.14081,-0.0287 0.28162,-0.06181 0.42244,-0.09925 0.14081,-0.03744 0.28163,-0.07922 0.42244,-0.125246 0.14082,-0.04602 0.28163,-0.09631 0.42245,-0.150735 0.14081,-0.05442 0.28163,-0.113008 0.42244,-0.175609 0.14082,-0.0626 0.28163,-0.129244 0.42245,-0.199767 0.14081,-0.07052 0.28162,-0.144953 0.42244,-0.223111 0.14081,-0.07816 0.28163,-0.160071 0.42244,-0.245546 0.14082,-0.08548 0.28163,-0.174535 0.42245,-0.266978 0.14081,-0.09244 0.28163,-0.188288 0.42244,-0.287322 0.14082,-0.09903 0.28163,-0.201274 0.42245,-0.306495 0.14081,-0.105221 0.28162,-0.213439 0.42244,-0.324418 0.14081,-0.110979 0.28163,-0.224734 0.42244,-0.341018 0.14082,-0.116285 0.28163,-0.235113 0.42245,-0.356228 0.14081,-0.121116 0.28163,-0.244533 0.42244,-0.369986 0.14082,-0.125453 0.28163,-0.252955 0.42244,-0.382234 0.14082,-0.129279 0.28163,-0.260346 0.42245,-0.392924 0.14081,-0.132578 0.28163,-0.266676 0.42244,-0.402012 0.14082,-0.135337 0.28163,-0.271919 0.42245,-0.409461 0.14081,-0.137543 0.28163,-0.276052 0.42244,-0.415241 0.14082,-0.139188 0.28163,-0.27906 0.42244,-0.419326 0.14082,-0.140267 0.28163,-0.280931 0.42245,-0.421704 0.14081,-0.140772 0.28163,-0.281655 0.42244,-0.42236 0.14082,-0.140705 0.28163,-0.281231 0.42245,-0.421295 0.14081,-0.140063 0.28163,-0.279661 0.42244,-0.418511 0.14082,-0.138851 0.28163,-0.2769506 0.42244,-0.4140227 0.14082,-0.1370721 0.28163,-0.2731105 0.42245,-0.407845 0.14081,-0.1347344 0.28163,-0.268157 0.42244,-0.4000045 0.14082,-0.1318474 0.28163,-0.2621101 0.42245,-0.390533 0.14081,-0.1284228 0.28163,-0.2549945 0.42244,-0.3794691 0.14082,-0.1244745 0.28163,-0.2468392 0.42244,-0.366858 0.14082,-0.1200187 0.28163,-0.2376774 0.42245,-0.352751 0.14081,-0.1150736 0.28163,-0.2275466 0.42244,-0.3372058 0.14082,-0.1096592 0.28163,-0.2164878 0.42245,-0.3202856 0.14081,-0.1037977 0.28163,-0.2045464 0.42244,-0.3020594 0.14081,-0.097513 0.28163,-0.191771 0.42244,-0.2826017 0.14082,-0.090831 0.28163,-0.1782136 0.42245,-0.2619916 0.14081,-0.083778 0.28163,-0.1639296 0.42244,-0.2403133 0.14082,-0.076384 0.28163,-0.1489772 0.42245,-0.2176552 0.14081,-0.068678 0.28163,-0.1334173 0.42244,-0.1941096 0.14081,-0.060692 0.28163,-0.1173133 0.42244,-0.1697724 0.14082,-0.052459 0.28163,-0.1007311 0.42245,-0.1447431 0.14081,-0.044012 0.28163,-0.083738 0.42244,-0.1191236"
       style="fill:none;stroke:#000000;stroke-width:0.26458332;stroke-opacity:1"
       inkscape:connector-curvature="0" />
    <path
       style="fill:none;stroke:#f93000;stroke-width:0.28467107px;stroke-linecap:butt;stroke-linejoin:miter;stroke-opacity:1"
       d="M 84.590806,28.394126 V 21.278075"
       id="path4698-1"
       inkscape:connector-curvature="0" />
    <path
       style="fill:none;stroke:#f93000;stroke-width:0.28666881px;stroke-linecap:butt;stroke-linejoin:miter;stroke-opacity:1"
       d="M 91.239136,35.610404 V 28.394126"
       id="path4698-2"
       inkscape:connector-curvature="0" />
    <path
       style="fill:none;stroke:#f93000;stroke-width:0.26601741px;stroke-linecap:butt;stroke-linejoin:miter;stroke-opacity:1"
       d="M 97.820647,28.460946 V 22.246931"
       id="path4698-7"
       inkscape:connector-curvature="0" />
    <path
       style="fill:none;stroke:#f93000;stroke-width:0.21981402px;stroke-linecap:butt;stroke-linejoin:miter;stroke-opacity:1"
       d="M 104.40216,32.63703 V 28.394126"
       id="path4698-0"
       inkscape:connector-curvature="0" />
    <path
       style="fill:none;stroke:#f93000;stroke-width:0.18708865px;stroke-linecap:butt;stroke-linejoin:miter;stroke-opacity:1"
       d="M 111.11731,28.460937 V 25.387338"
       id="path4698-9"
       inkscape:connector-curvature="0" />
    <path
       style="fill:none;stroke:#f93000;stroke-width:0.07032754px;stroke-linecap:butt;stroke-linejoin:miter;stroke-opacity:1"
       d="M 117.73223,28.594566 V 28.160252"
       id="path4698-3"
       inkscape:connector-curvature="0" />
    <path
       style="fill:none;stroke:#f93000;stroke-width:0.17031226px;stroke-linecap:butt;stroke-linejoin:miter;stroke-opacity:1"
       d="m 130.9944,28.491864 0.069,-2.467281"
       id="path4698-06"
       inkscape:connector-curvature="0" />
    <path
       id="path4674"
       title="sin(10*x)"
       d="m 83.34375,28.447908 h 50.27083 M 83.34375,35.72395 V 21.171867 m 0,7.276041 c 0.01677,-0.167737 0.03355,-0.335474 0.05032,-0.50281 0.01677,-0.167337 0.03355,-0.334271 0.05032,-0.500407 0.01677,-0.166136 0.03355,-0.331469 0.05032,-0.495609 0.01677,-0.164141 0.03355,-0.327083 0.05032,-0.488444 0.01677,-0.161361 0.03355,-0.321132 0.05032,-0.478942 0.01677,-0.15781 0.03355,-0.313647 0.05032,-0.467151 0.01677,-0.153504 0.03355,-0.304661 0.05032,-0.453125 0.01677,-0.148465 0.03355,-0.29422 0.05032,-0.436934 0.01677,-0.142715 0.03355,-0.282371 0.05032,-0.418654 0.01677,-0.136283 0.03355,-0.269172 0.05032,-0.398371 0.01677,-0.129199 0.03355,-0.254686 0.05032,-0.376184 0.01677,-0.121498 0.03355,-0.238983 0.05032,-0.352199 0.01677,-0.113216 0.03355,-0.222137 0.05032,-0.326529 0.01677,-0.104393 0.03355,-0.204229 0.05032,-0.299299 0.01677,-0.09507 0.03355,-0.185344 0.05032,-0.270637 0.01677,-0.08529 0.03355,-0.165573 0.05032,-0.240681 0.01677,-0.07511 0.03355,-0.145011 0.05032,-0.209575 0.01677,-0.06456 0.03355,-0.123755 0.05032,-0.177466 0.01677,-0.05371 0.03355,-0.101908 0.05032,-0.144509 0.01677,-0.0426 0.03355,-0.07957 0.05032,-0.110862 0.01677,-0.03129 0.03355,-0.05686 0.05032,-0.07668 0.01677,-0.01982 0.03355,-0.03387 0.05032,-0.04214 0.01677,-0.0083 0.03355,-0.01072 0.05032,-0.0074 0.01677,0.0033 0.03355,0.01248 0.05032,0.02739 0.01677,0.01491 0.03355,0.03562 0.05032,0.06204 0.01677,0.02642 0.03355,0.05859 0.05032,0.09639 0.01677,0.0378 0.03355,0.08128 0.05032,0.130285 0.01677,0.04901 0.03355,0.103581 0.05032,0.163556 0.01677,0.05998 0.03355,0.125387 0.05032,0.196044 0.01677,0.07066 0.03355,0.146593 0.05032,0.227595 0.01677,0.081 0.03355,0.167099 0.05032,0.258057 0.01677,0.09096 0.03355,0.186806 0.05032,0.287285 0.01677,0.10048 0.03355,0.20562 0.05032,0.315141 0.01677,0.109522 0.03355,0.223451 0.05032,0.34149 0.01677,0.118039 0.03355,0.240212 0.05032,0.366205 0.01677,0.125992 0.03355,0.255826 0.05032,0.389169 0.01677,0.133344 0.03355,0.270217 0.05032,0.410274 0.01677,0.140057 0.03355,0.283316 0.05032,0.429416 0.01677,0.146101 0.03355,0.29506 0.05032,0.446506 0.01677,0.151445 0.03355,0.305393 0.05032,0.46146 0.01677,0.156066 0.03355,0.314266 0.05032,0.474208 0.01677,0.159941 0.03355,0.321636 0.05032,0.484688 0.01677,0.163053 0.03355,0.32747 0.05032,0.492853 0.01677,0.165383 0.03355,0.331737 0.05032,0.498659 0.01677,0.166923 0.03355,0.334418 0.05032,0.502082 0.01677,0.167665 0.03355,0.3355 0.05032,0.503105 0.01677,0.167605 0.03355,0.334978 0.05032,0.501721 0.01677,0.166744 0.03355,0.332854 0.05032,0.497939 0.01677,0.165086 0.03355,0.329139 0.05032,0.491777 0.01677,0.162638 0.03355,0.32385 0.05032,0.483262 0.01677,0.159413 0.03355,0.317014 0.05032,0.472438 0.01677,0.155425 0.03355,0.30866 0.05032,0.459355 0.01677,0.150694 0.03355,0.298831 0.05032,0.444074 0.01677,0.145243 0.03355,0.287574 0.05032,0.426672 0.01677,0.139097 0.03355,0.274942 0.05032,0.407229 0.01677,0.132287 0.03355,0.260995 0.05032,0.385838 0.01677,0.124844 0.03355,0.245801 0.05032,0.362604 0.01677,0.116804 0.03355,0.229431 0.05032,0.337636 0.01677,0.108205 0.03355,0.211963 0.05032,0.311053 0.01677,0.09909 0.03355,0.193482 0.05032,0.282982 0.01677,0.0895 0.03355,0.174078 0.05032,0.25356 0.01677,0.07948 0.03355,0.15384 0.05032,0.222925 0.01677,0.06909 0.03355,0.132866 0.05032,0.191223 0.01677,0.05836 0.03355,0.111258 0.05032,0.158608 0.01677,0.04735 0.03355,0.08912 0.05032,0.125234 0.01677,0.03612 0.03355,0.06655 0.05032,0.09126 0.01677,0.02471 0.03355,0.04367 0.05032,0.05685 0.01677,0.01319 0.03355,0.02057 0.05032,0.02217 0.01677,0.0016 0.03355,-0.0026 0.05032,-0.01261 0.01677,-0.01 0.03355,-0.0258 0.05032,-0.04734 0.01677,-0.02154 0.03355,-0.04886 0.05032,-0.08184 0.01677,-0.03299 0.03355,-0.07168 0.05032,-0.11595 0.01677,-0.04427 0.03355,-0.09416 0.05032,-0.149504 0.01677,-0.05535 0.03355,-0.116187 0.05032,-0.182344 0.01677,-0.06616 0.03355,-0.137661 0.05032,-0.214311 0.01677,-0.07665 0.03355,-0.158477 0.05032,-0.245255 0.01677,-0.08678 0.03355,-0.178535 0.05032,-0.275025 0.01677,-0.09649 0.03355,-0.197739 0.05032,-0.30348 0.01677,-0.105741 0.03355,-0.215999 0.05032,-0.330485 0.01677,-0.114486 0.03355,-0.233225 0.05032,-0.355909 0.01677,-0.122684 0.03355,-0.249337 0.05032,-0.379632 0.01677,-0.130296 0.03355,-0.264256 0.05032,-0.40154 0.01677,-0.137284 0.03355,-0.277911 0.05032,-0.421527 0.01677,-0.143616 0.03355,-0.290238 0.05032,-0.4395 0.01677,-0.149261 0.03355,-0.301177 0.05032,-0.455371 0.01677,-0.154193 0.03355,-0.310676 0.05032,-0.469064 0.01677,-0.158388 0.03355,-0.318691 0.05032,-0.480516 0.01677,-0.161824 0.03355,-0.32518 0.05032,-0.489669 0.01677,-0.164488 0.03355,-0.330116 0.05032,-0.496481 0.01677,-0.166366 0.03355,-0.333474 0.05032,-0.500921 0.01677,-0.167447 0.03355,-0.335235 0.05032,-0.502964 0.01677,-0.167728 0.03355,-0.335395 0.05032,-0.502603 0.01677,-0.167207 0.03355,-0.333951 0.05032,-0.499838 0.01677,-0.165887 0.03355,-0.330911 0.05032,-0.494685 0.01677,-0.163773 0.03355,-0.326288 0.05032,-0.487165 0.01677,-0.160877 0.03355,-0.320106 0.05032,-0.477317 0.01677,-0.157211 0.03355,-0.312393 0.05032,-0.465187 0.01677,-0.152793 0.03355,-0.303185 0.05032,-0.450831 0.01677,-0.147646 0.03355,-0.29253 0.05032,-0.434322 0.01677,-0.141792 0.03355,-0.280474 0.05032,-0.415734 0.01677,-0.13526 0.03355,-0.267078 0.05032,-0.39516 0.01677,-0.128082 0.03355,-0.252405 0.05032,-0.372696 0.01677,-0.120291 0.03355,-0.236525 0.05032,-0.34845 0.01677,-0.111925 0.03355,-0.219515 0.05032,-0.322539 0.01677,-0.103024 0.03355,-0.201454 0.05032,-0.295084 0.01677,-0.09363 0.03355,-0.182431 0.05032,-0.26622 0.01677,-0.08379 0.03355,-0.162535 0.05032,-0.236082 0.01677,-0.07355 0.03355,-0.141862 0.05032,-0.204815 0.01677,-0.06295 0.03355,-0.120511 0.05032,-0.17257 0.01677,-0.05206 0.03355,-0.09858 0.05032,-0.139499 0.01677,-0.04091 0.03355,-0.07619 0.05032,-0.105761 0.01677,-0.02958 0.03355,-0.05342 0.05032,-0.07152 0.01677,-0.01809 0.03355,-0.0304 0.05032,-0.03693 0.01677,-0.0065 0.03355,-0.0072 0.05032,-0.0022 0.01677,0.0051 0.03355,0.01596 0.05032,0.0326 0.01677,0.01664 0.03355,0.03908 0.05032,0.06722 0.01677,0.02814 0.03355,0.06201 0.05032,0.101513 0.01677,0.0395 0.03355,0.08465 0.05032,0.135323 0.01677,0.05067 0.03355,0.106888 0.05032,0.168486 0.01677,0.0616 0.03355,0.128611 0.05032,0.200844 0.01677,0.07223 0.03355,0.149718 0.05032,0.23224 0.01677,0.08252 0.03355,0.17011 0.05032,0.262526 0.01677,0.09242 0.03355,0.189689 0.05032,0.291558 0.01677,0.101869 0.03355,0.208361 0.05032,0.319195 0.01677,0.110834 0.03355,0.226036 0.05032,0.345306 0.01677,0.11927 0.03355,0.242632 0.05032,0.369767 0.01677,0.127135 0.03355,0.258066 0.05032,0.392458 0.01677,0.134393 0.03355,0.272267 0.05032,0.413275 0.01677,0.141007 0.03355,0.285166 0.05032,0.432114 0.01677,0.146948 0.03355,0.296702 0.05032,0.448888 0.01677,0.152186 0.03355,0.306819 0.05032,0.463516 0.01677,0.156697 0.03355,0.315469 0.05032,0.475927 0.01677,0.160458 0.03355,0.322611 0.05032,0.486063 0.01677,0.163452 0.03355,0.328211 0.05032,0.493876 0.01677,0.165664 0.03355,0.33224 0.05032,0.499325 0.01677,0.167085 0.03355,0.334683 0.05032,0.502389 0.01677,0.167707 0.03355,0.335524 0.05032,0.503051 0.01677,0.167526 0.03355,0.33476 0.05032,0.501306 0.01677,0.166545 0.03355,0.332397 0.05032,0.497165 0.01677,0.164768 0.03355,0.328445 0.05032,0.490648 0.01677,0.162203 0.03355,0.322922 0.05032,0.481784 0.01677,0.158862 0.03355,0.315855 0.05032,0.470617 0.01677,0.154761 0.03355,0.307278 0.05032,0.457199 0.01677,0.149921 0.03355,0.297232 0.05032,0.441596 0.01677,0.144364 0.03355,0.285764 0.05032,0.423881 0.01677,0.138117 0.03355,0.272931 0.05032,0.40414 0.01677,0.131209 0.03355,0.258792 0.05032,0.382466 0.01677,0.123674 0.03355,0.243416 0.05032,0.358964 0.01677,0.115548 0.03355,0.226876 0.05032,0.333746 0.01677,0.106869 0.03355,0.209251 0.05032,0.306931 0.01677,0.09768 0.03355,0.190626 0.05032,0.278649 0.01677,0.08802 0.03355,0.17109 0.05032,0.249035 0.01677,0.07794 0.03355,0.150736 0.05032,0.218231 0.01677,0.06749 0.03355,0.129661 0.05032,0.186382 0.01677,0.05672 0.03355,0.107966 0.05032,0.153643 0.01677,0.04568 0.03355,0.08575 0.05032,0.120169 0.01677,0.03442 0.03355,0.06313 0.05032,0.08612 0.01677,0.02299 0.03355,0.04021 0.05032,0.05166 0.01677,0.01145 0.03355,0.01709 0.05032,0.01695 0.01677,-1.41e-4 0.03355,-0.0061 0.05032,-0.01784 0.01677,-0.01173 0.03355,-0.02927 0.05032,-0.05254 0.01677,-0.02327 0.03355,-0.0523 0.05032,-0.08699 0.01677,-0.03469 0.03355,-0.07508 0.05032,-0.121025 0.01677,-0.04595 0.03355,-0.0975 0.05032,-0.154483 0.01677,-0.05699 0.03355,-0.119448 0.05032,-0.187201 0.01677,-0.06775 0.03355,-0.14083 0.05032,-0.219025 0.01677,-0.0782 0.03355,-0.161539 0.05032,-0.249802 0.01677,-0.08826 0.03355,-0.181474 0.05032,-0.279383 0.01677,-0.09791 0.03355,-0.200543 0.05032,-0.30763 0.01677,-0.107086 0.03355,-0.218652 0.05032,-0.334405 0.01677,-0.115752 0.03355,-0.235716 0.05032,-0.359581 0.01677,-0.123865 0.03355,-0.251654 0.05032,-0.383039 0.01677,-0.131385 0.03355,-0.266388 0.05032,-0.404665 0.01677,-0.138277 0.03355,-0.279848 0.05032,-0.424355 0.01677,-0.144508 0.03355,-0.291971 0.05032,-0.442018 0.01677,-0.150048 0.03355,-0.302697 0.05032,-0.457567 0.01677,-0.15487 0.03355,-0.311976 0.05032,-0.470928 0.01677,-0.158952 0.03355,-0.319763 0.05032,-0.482037 0.01677,-0.162275 0.03355,-0.326022 0.05032,-0.490842 0.01677,-0.164821 0.03355,-0.330721 0.05032,-0.4973 0.01677,-0.166579 0.03355,-0.33384 0.05032,-0.50138 0.01677,-0.167541 0.03355,-0.335362 0.05032,-0.503064 0.01677,-0.167701 0.03355,-0.335281 0.05032,-0.502341 0.01677,-0.16706 0.03355,-0.333596 0.05032,-0.499216 0.01677,-0.165621 0.03355,-0.330318 0.05032,-0.493707 0.01677,-0.163388 0.03355,-0.325459 0.05032,-0.485834 0.01677,-0.160376 0.03355,-0.319045 0.05032,-0.475641 0.01677,-0.156595 0.03355,-0.311105 0.05032,-0.463172 0.01677,-0.152067 0.03355,-0.301677 0.05032,-0.448489 0.01677,-0.146812 0.03355,-0.290808 0.05032,-0.431662 0.01677,-0.140854 0.03355,-0.278547 0.05032,-0.412771 0.01677,-0.134223 0.03355,-0.264955 0.05032,-0.391906 0.01677,-0.12695 0.03355,-0.250096 0.05032,-0.369167 0.01677,-0.119071 0.03355,-0.234042 0.05032,-0.344664 0.01677,-0.110622 0.03355,-0.216869 0.05032,-0.318513 0.01677,-0.101644 0.03355,-0.198658 0.05032,-0.290839 0.01677,-0.09218 0.03355,-0.179498 0.05032,-0.261773 0.01677,-0.08228 0.03355,-0.15948 0.05032,-0.231457 0.01677,-0.07198 0.03355,-0.138699 0.05032,-0.200034 0.01677,-0.06134 0.03355,-0.117255 0.05032,-0.167655 0.01677,-0.0504 0.03355,-0.09525 0.05032,-0.134473 0.01677,-0.03922 0.03355,-0.07279 0.05032,-0.10065 0.01677,-0.02786 0.03355,-0.04998 0.05032,-0.06634 0.01677,-0.01636 0.03355,-0.02693 0.05032,-0.03172 0.01677,-0.0048 0.03355,-0.0038 0.05032,0.0031 0.01677,0.0068 0.03355,0.01944 0.05032,0.03781 0.01677,0.01838 0.03355,0.04254 0.05032,0.07239 0.01677,0.02985 0.03355,0.06544 0.05032,0.106624 0.01677,0.04119 0.03355,0.08802 0.05032,0.140346 0.01677,0.05233 0.03355,0.110183 0.05032,0.173398 0.01677,0.06321 0.03355,0.13182 0.05032,0.205621 0.01677,0.0738 0.03355,0.152827 0.05032,0.23686 0.01677,0.08403 0.03355,0.173104 0.05032,0.266968 0.01677,0.09386 0.03355,0.192552 0.05032,0.295798 0.01677,0.103247 0.03355,0.21108 0.05032,0.323215 0.01677,0.112135 0.03355,0.228598 0.05032,0.349086 0.01677,0.120488 0.03355,0.245024 0.05032,0.373288 0.01677,0.128264 0.03355,0.260278 0.05032,0.395706 0.01677,0.135427 0.03355,0.274287 0.05032,0.41623 0.01677,0.141943 0.03355,0.286986 0.05032,0.434766 0.01677,0.14778 0.03355,0.298313 0.05032,0.451223 0.01677,0.15291 0.03355,0.308212 0.05032,0.465521 0.01677,0.15731 0.03355,0.316639 0.05032,0.477595 0.01677,0.160957 0.03355,0.323551 0.05032,0.487385 0.01677,0.163835 0.03355,0.328917 0.05032,0.494845 0.01677,0.165929 0.03355,0.332709 0.05032,0.499938 0.01677,0.16723 0.03355,0.334911 0.05032,0.502642 0.01677,0.167731 0.03355,0.335512 0.05032,0.502942 0.01677,0.16743 0.03355,0.334508 0.05032,0.500837 0.01677,0.166329 0.03355,0.331905 0.05032,0.496338 0.01677,0.164433 0.03355,0.327716 0.05032,0.489466 0.01677,0.161751 0.03355,0.321959 0.05032,0.480254 0.01677,0.158294 0.03355,0.314663 0.05032,0.468745 0.01677,0.154081 0.03355,0.305862 0.05032,0.454994 0.01677,0.149133 0.03355,0.2956 0.05032,0.43907 0.01677,0.14347 0.03355,0.283924 0.05032,0.421045 0.01677,0.137122 0.03355,0.27089 0.05032,0.401008 0.01677,0.130117 0.03355,0.256561 0.05032,0.379052 0.01677,0.122491 0.03355,0.241006 0.05032,0.355286 0.01677,0.114279 0.03355,0.224298 0.05032,0.329819 0.01677,0.105521 0.03355,0.206518 0.05032,0.302776 0.01677,0.09626 0.03355,0.18775 0.05032,0.274286 0.01677,0.08654 0.03355,0.168085 0.05032,0.244484 0.01677,0.0764 0.03355,0.147616 0.05032,0.213513 0.01677,0.0659 0.03355,0.126441 0.05032,0.181521 0.01677,0.05508 0.03355,0.104662 0.05032,0.148662 0.01677,0.044 0.03355,0.08238 0.05032,0.115091 0.01677,0.03271 0.03355,0.05971 0.05032,0.08097 0.01677,0.02126 0.03355,0.03675 0.05032,0.04646 0.01677,0.0097 0.03355,0.01362 0.05032,0.01173 0.01677,-0.0019 0.03355,-0.0096 0.05032,-0.02305 0.01677,-0.01347 0.03355,-0.03274 0.05032,-0.05773 0.01677,-0.02499 0.03355,-0.05574 0.05032,-0.09213 0.01677,-0.03639 0.03355,-0.07847 0.05032,-0.126088 0.01677,-0.04762 0.03355,-0.100823 0.05032,-0.159445 0.01677,-0.05862 0.03355,-0.122697 0.05032,-0.192039 0.01677,-0.06934 0.03355,-0.143984 0.05032,-0.223715 0.01677,-0.07973 0.03355,-0.164583 0.05032,-0.254322 0.01677,-0.08974 0.03355,-0.184394 0.05032,-0.283711 0.01677,-0.09932 0.03355,-0.203325 0.05032,-0.311746 0.01677,-0.108421 0.03355,-0.221282 0.05032,-0.338289 0.01677,-0.117006 0.03355,-0.238183 0.05032,-0.363215 0.01677,-0.125032 0.03355,-0.253944 0.05032,-0.386404 0.01677,-0.132461 0.03355,-0.268491 0.05032,-0.407746 0.01677,-0.139255 0.03355,-0.281755 0.05032,-0.427139 0.01677,-0.145384 0.03355,-0.29367 0.05032,-0.444488 0.01677,-0.150818 0.03355,-0.304183 0.05032,-0.459714 0.01677,-0.15553 0.03355,-0.31324 0.05032,-0.47274 0.01677,-0.1595 0.03355,-0.320801 0.05032,-0.483507 0.01677,-0.162707 0.03355,-0.326827 0.05032,-0.491962 0.01677,-0.165135 0.03355,-0.331291 0.05032,-0.498065 0.01677,-0.166774 0.03355,-0.33417 0.05032,-0.501786 0.01677,-0.167616 0.03355,-0.335452 0.05032,-0.503108 0.01677,-0.167656 0.03355,-0.33513 0.05032,-0.502025 0.01677,-0.166895 0.03355,-0.333206 0.05032,-0.498542 0.01677,-0.165335 0.03355,-0.329688 0.05032,-0.492674 0.01677,-0.162986 0.03355,-0.324595 0.05032,-0.484452 0.01677,-0.159856 0.03355,-0.317949 0.05032,-0.473912 0.01677,-0.155963 0.03355,-0.309784 0.05032,-0.461108 0.01677,-0.151324 0.03355,-0.300137 0.05032,-0.446098 0.01677,-0.145962 0.03355,-0.289055 0.05032,-0.428956 0.01677,-0.139901 0.03355,-0.276591 0.05032,-0.409763 0.01677,-0.133171 0.03355,-0.262804 0.05032,-0.38861 0.01677,-0.125805 0.03355,-0.247761 0.05032,-0.365599 0.01677,-0.117838 0.03355,-0.231534 0.05032,-0.340841 0.01677,-0.109307 0.03355,-0.214199 0.05032,-0.314453 0.01677,-0.100254 0.03355,-0.195841 0.05032,-0.286561 0.01677,-0.09072 0.03355,-0.176546 0.05032,-0.2573 0.01677,-0.08075 0.03355,-0.156406 0.05032,-0.226807 0.01677,-0.0704 0.03355,-0.135519 0.05032,-0.195231 0.01677,-0.05971 0.03355,-0.113985 0.05032,-0.162722 0.01677,-0.04874 0.03355,-0.0919 0.05032,-0.129433 0.01677,-0.03753 0.03355,-0.06939 0.05032,-0.09553 0.01677,-0.02614 0.03355,-0.04653 0.05032,-0.06116 0.01677,-0.01463 0.03355,-0.02346 0.05032,-0.02651 0.01677,-0.003 0.03355,-2.75e-4 0.05032,0.0083 0.01677,0.0085 0.03355,0.02291 0.05032,0.04302 0.01677,0.02011 0.03355,0.04599 0.05032,0.07756 0.01677,0.03157 0.03355,0.06885 0.05032,0.111721 0.01677,0.04287 0.03355,0.09138 0.05032,0.145354 0.01677,0.05398 0.03355,0.113467 0.05032,0.178292 0.01677,0.06482 0.03355,0.135016 0.05032,0.210376 0.01677,0.07536 0.03355,0.15592 0.05032,0.241455 0.01677,0.08554 0.03355,0.176078 0.05032,0.27138 0.01677,0.0953 0.03355,0.195394 0.05032,0.300008 0.01677,0.104613 0.03355,0.213775 0.05032,0.327199 0.01677,0.113425 0.03355,0.231136 0.05032,0.352829 0.01677,0.121692 0.03355,0.24739 0.05032,0.376769 0.01677,0.129379 0.03355,0.262462 0.05032,0.398909 0.01677,0.136448 0.03355,0.276279 0.05032,0.419142 0.01677,0.142863 0.03355,0.288776 0.05032,0.437371 0.01677,0.148596 0.03355,0.299891 0.05032,0.453508 0.01677,0.153618 0.03355,0.309572 0.05032,0.467478 0.01677,0.157905 0.03355,0.317773 0.05032,0.479211 0.01677,0.161438 0.03355,0.324456 0.05032,0.488655 0.01677,0.164198 0.03355,0.329586 0.05032,0.49576 0.01677,0.166175 0.03355,0.333142 0.05032,0.500497 0.01677,0.167356 0.03355,0.335104 0.05032,0.502841 0.01677,0.167737 0.03355,0.335463 0.05032,0.502779 0.01677,0.167316 0.03355,0.334219 0.05032,0.500314 0.01677,0.166095 0.03355,0.331377 0.05032,0.495457 0.01677,0.164081 0.03355,0.326951 0.05032,0.488232 0.01677,0.16128 0.03355,0.320961 0.05032,0.478671 0.01677,0.15771 0.03355,0.313437 0.05032,0.466823 0.01677,0.153385 0.03355,0.304414 0.05032,0.452741 0.01677,0.148327 0.03355,0.293936 0.05032,0.436496 0.01677,0.14256 0.03355,0.282053 0.05032,0.418164 0.01677,0.136111 0.03355,0.26882 0.05032,0.397832 0.01677,0.129011 0.03355,0.254303 0.05032,0.375598 0.01677,0.121295 0.03355,0.238569 0.05032,0.351568 0.01677,0.112999 0.03355,0.221696 0.05032,0.325858 0.0168,0.104162 0.0336,0.203761 0.0503,0.298589 0.0168,0.09483 0.0336,0.184853 0.0503,0.269892 0.0168,0.08504 0.0336,0.165062 0.0503,0.239906 0.0168,0.07484 0.0335,0.144481 0.0503,0.208773 0.0168,0.06429 0.0335,0.123208 0.0503,0.17664 0.0168,0.05343 0.0335,0.101348 0.0503,0.143664 0.0168,0.04232 0.0336,0.079 0.0503,0.110001 0.0168,0.031 0.0336,0.05628 0.0503,0.07581 0.0168,0.01953 0.0336,0.03329 0.0503,0.04126 0.0168,0.008 0.0336,0.01013 0.0503,0.0065 0.0168,-0.0036 0.0336,-0.01306 0.0503,-0.02827 0.0168,-0.0152 0.0336,-0.0362 0.0503,-0.06291 0.0168,-0.02671 0.0335,-0.05917 0.0503,-0.09726 0.0168,-0.03809 0.0335,-0.08185 0.0503,-0.131137 0.0168,-0.04929 0.0336,-0.10414 0.0503,-0.16439 0.0168,-0.06025 0.0336,-0.125932 0.0503,-0.196856 0.0168,-0.07092 0.0336,-0.147122 0.0503,-0.228381 0.0168,-0.08126 0.0336,-0.167609 0.0503,-0.258814 0.0168,-0.09121 0.0336,-0.187294 0.0503,-0.288009 0.0168,-0.100716 0.0336,-0.206085 0.0503,-0.315828 0.0168,-0.109744 0.0336,-0.223889 0.0503,-0.342137 0.0168,-0.118248 0.0335,-0.240623 0.0503,-0.366809 0.0168,-0.126186 0.0335,-0.256207 0.0503,-0.389728 0.0168,-0.133522 0.0336,-0.270566 0.0503,-0.410784 0.0168,-0.140218 0.0336,-0.28363 0.0503,-0.429875 0.0168,-0.146245 0.0335,-0.295339 0.0503,-0.446911 0.0168,-0.151572 0.0335,-0.305637 0.0503,-0.461811 0.0168,-0.156174 0.0335,-0.314472 0.0503,-0.474502 0.0168,-0.16003 0.0335,-0.321804 0.0503,-0.484925 0.0168,-0.163121 0.0335,-0.327597 0.0503,-0.493029 0.0168,-0.165431 0.0335,-0.331824 0.0503,-0.498775 0.0168,-0.166952 0.0335,-0.334465 0.0503,-0.502138 0.0168,-0.167673 0.0335,-0.335506 0.0503,-0.503099 0.0168,-0.167593 0.0335,-0.334944 0.0503,-0.501655 0.0168,-0.166712 0.0335,-0.33278 0.0503,-0.497813 0.0168,-0.165032 0.0335,-0.329024 0.0503,-0.491589 0.0168,-0.162565 0.0336,-0.323696 0.0503,-0.483016 0.0168,-0.159321 0.0336,-0.31682 0.0503,-0.472134 0.0168,-0.155314 0.0335,-0.308429 0.0503,-0.458994 0.0168,-0.150565 0.0335,-0.298564 0.0503,-0.443659 0.0168,-0.145096 0.0335,-0.287271 0.0503,-0.426204 0.0168,-0.138933 0.0336,-0.274604 0.0503,-0.40671 0.0168,-0.132106 0.0336,-0.260625 0.0503,-0.385272 0.0168,-0.124647 0.0336,-0.2454 0.0503,-0.361992 0.0168,-0.116593 0.0336,-0.229001 0.0503,-0.336981 0.0168,-0.107981 0.0336,-0.211507 0.0503,-0.310359 0.0168,-0.09885 0.0336,-0.193002 0.0503,-0.282253 0.0168,-0.08925 0.0335,-0.173574 0.0503,-0.252798 0.0168,-0.07922 0.0335,-0.153316 0.0503,-0.222133 0.0168,-0.06882 0.0336,-0.132326 0.0503,-0.190407 0.0168,-0.05808 0.0336,-0.110703 0.0503,-0.157771 0.0168,-0.04707 0.0336,-0.08855 0.0503,-0.124379 0.0168,-0.03583 0.0336,-0.06597 0.0503,-0.0904 0.0168,-0.02442 0.0336,-0.04308 0.0503,-0.05598 0.0168,-0.01289 0.0336,-0.01999 0.0503,-0.02129 0.0168,-0.0013 0.0335,0.0032 0.0503,0.0135 0.0168,0.01029 0.0335,0.02639 0.0503,0.04822 0.0168,0.02183 0.0335,0.04944 0.0503,0.08271 0.0168,0.03327 0.0336,0.07225 0.0503,0.116808 0.0168,0.04456 0.0336,0.09472 0.0503,0.150346 0.0168,0.05562 0.0336,0.116739 0.0503,0.183166 0.0168,0.06643 0.0335,0.138197 0.0503,0.215109 0.0168,0.07691 0.0335,0.158995 0.0503,0.246024 0.0168,0.08703 0.0335,0.179033 0.0503,0.275763 0.0168,0.09673 0.0335,0.198215 0.0503,0.304184 0.0168,0.105969 0.0335,0.216448 0.0503,0.331149 0.0168,0.114701 0.0335,0.233648 0.0503,0.356533 0.0168,0.122884 0.0335,0.249729 0.0503,0.38021 0.0168,0.13048 0.0335,0.264618 0.0503,0.40207 0.0168,0.137453 0.0335,0.278241 0.0503,0.422008 0.0168,0.143768 0.0335,0.290534 0.0503,0.439929 0.0168,0.149395 0.0335,0.301436 0.0503,0.455745 0.0168,0.154309 0.0336,0.310898 0.0503,0.469383 0.0168,0.158484 0.0335,0.318874 0.0503,0.480776 0.0168,0.161902 0.0335,0.325325 0.0503,0.489871 0.0168,0.164546 0.0335,0.330221 0.0503,0.496624 0.0168,0.166402 0.0335,0.333537 0.0503,0.501001 0.0168,0.167464 0.0336,0.33526 0.0503,0.502985 0.0168,0.167725 0.0336,0.335379 0.0503,0.502562 0.0168,0.167184 0.0336,0.333894 0.0503,0.499738 0.0168,0.165843 0.0336,0.330813 0.0503,0.494523 0.0168,0.163709 0.0335,0.326151 0.0503,0.486944 0.0168,0.160793 0.0335,0.319929 0.0503,0.477037 0.0168,0.157109 0.0335,0.312178 0.0503,0.46485 0.0168,0.152672 0.0336,0.302933 0.0503,0.45044 0.0168,0.147506 0.0336,0.29224 0.0503,0.433875 0.0168,0.141635 0.0336,0.280151 0.0503,0.415237 0.0168,0.135086 0.0336,0.266722 0.0503,0.394613 0.0168,0.127892 0.0336,0.252018 0.0503,0.372103 0.0168,0.120086 0.0336,0.236108 0.0503,0.347814 0.0168,0.111706 0.0335,0.219069 0.0503,0.321861 0.0168,0.102791 0.0335,0.200983 0.0503,0.294369 0.0168,0.09339 0.0336,0.181937 0.0503,0.265471 0.0168,0.08353 0.0336,0.16202 0.0503,0.235302 0.0168,0.07328 0.0336,0.141329 0.0503,0.20401 0.0168,0.06268 0.0336,0.119962 0.0503,0.17174 0.0168,0.05178 0.0336,0.09802 0.0503,0.138652 0.0168,0.04063 0.0335,0.07561 0.0503,0.104898 0.0168,0.02929 0.0335,0.05284 0.0503,0.07064 0.0168,0.0178 0.0335,0.02982 0.0503,0.03605 0.0168,0.0062 0.0335,0.0067 0.0503,0.0013 0.0168,-0.0054 0.0335,-0.01655 0.0503,-0.03348 0.0168,-0.01694 0.0335,-0.03966 0.0503,-0.06809 0.0168,-0.02843 0.0335,-0.06259 0.0503,-0.102377 0.0168,-0.03978 0.0335,-0.08522 0.0503,-0.136173 0.0168,-0.05095 0.0335,-0.107445 0.0503,-0.169317 0.0168,-0.06187 0.0335,-0.129153 0.0503,-0.201651 0.0168,-0.0725 0.0335,-0.150245 0.0503,-0.233022 0.0168,-0.08278 0.0335,-0.170618 0.0503,-0.263279 0.0168,-0.09266 0.0335,-0.190174 0.0503,-0.292276 0.0168,-0.102103 0.0335,-0.208822 0.0503,-0.319877 0.0168,-0.111055 0.0335,-0.226471 0.0503,-0.345947 0.0168,-0.119476 0.0335,-0.243037 0.0503,-0.370364 0.0168,-0.127327 0.0336,-0.258442 0.0503,-0.39301 0.0168,-0.134568 0.0336,-0.272611 0.0503,-0.413777 0.0168,-0.141166 0.0336,-0.285476 0.0503,-0.432565 0.0168,-0.14709 0.0335,-0.296977 0.0503,-0.449286 0.0168,-0.15231 0.0335,-0.307057 0.0503,-0.463858 0.0168,-0.156802 0.0336,-0.315669 0.0503,-0.476213 0.0168,-0.160543 0.0336,-0.322772 0.0503,-0.48629 0.0168,-0.163518 0.0336,-0.328332 0.0503,-0.494043 0.0168,-0.16571 0.0336,-0.332322 0.0503,-0.499433 0.0168,-0.16711 0.0336,-0.334723 0.0503,-0.502435 0.0168,-0.167712 0.0336,-0.335524 0.0503,-0.503036 0.0168,-0.167511 0.0336,-0.334721 0.0503,-0.501231 0.0168,-0.16651 0.0335,-0.332317 0.0503,-0.497029 0.0168,-0.164713 0.0335,-0.328324 0.0503,-0.490452 0.0168,-0.162127 0.0336,-0.322762 0.0503,-0.481529 0.0168,-0.158767 0.0336,-0.315656 0.0503,-0.470304 0.0168,-0.154648 0.0336,-0.307041 0.0503,-0.45683 0.0168,-0.14979 0.0336,-0.296959 0.0503,-0.441173 0.0168,-0.144214 0.0336,-0.285456 0.0503,-0.423405 0.0168,-0.13795 0.0336,-0.272589 0.0503,-0.403614 0.0168,-0.131026 0.0335,-0.258418 0.0503,-0.381893 0.0168,-0.123475 0.0335,-0.243011 0.0503,-0.358345 0.0168,-0.115335 0.0335,-0.226443 0.0503,-0.333085 0.0168,-0.106642 0.0336,-0.208792 0.0503,-0.306232 0.0168,-0.09744 0.0336,-0.190142 0.0503,-0.277914 0.0168,-0.08777 0.0335,-0.170584 0.0503,-0.248269 0.0168,-0.07768 0.0335,-0.15021 0.0503,-0.217435 0.0168,-0.06723 0.0335,-0.129118 0.0503,-0.185563 0.0168,-0.05644 0.0335,-0.107408 0.0503,-0.152802 0.0168,-0.0454 0.0335,-0.08519 0.0503,-0.119313 0.0168,-0.03413 0.0335,-0.06255 0.0503,-0.08525 0.0168,-0.0227 0.0335,-0.03963 0.0503,-0.05078 0.0168,-0.01116 0.0335,-0.01651 0.0503,-0.01607 0.0168,4.35e-4 0.0335,0.0067 0.0503,0.01872 0.0168,0.01203 0.0335,0.02986 0.0503,0.05342 0.0168,0.02356 0.0335,0.05288 0.0503,0.08786 0.0168,0.03498 0.0336,0.07565 0.0503,0.121882 0.0168,0.04623 0.0336,0.09806 0.0503,0.155322 0.0168,0.05726 0.0335,0.119998 0.0503,0.18802 0.0168,0.06802 0.0335,0.141363 0.0503,0.219818 0.0168,0.07846 0.0336,0.162054 0.0503,0.250567 0.0168,0.08851 0.0336,0.181969 0.0503,0.280117 0.0168,0.09815 0.0336,0.201014 0.0503,0.308327 0.0168,0.107313 0.0336,0.219098 0.0503,0.335063 0.0168,0.115965 0.0336,0.236135 0.0503,0.360198 0.0168,0.124063 0.0336,0.252043 0.0503,0.38361 0.0168,0.131568 0.0335,0.266745 0.0503,0.405188 0.0168,0.138444 0.0335,0.280173 0.0503,0.424829 0.0168,0.144657 0.0335,0.29226 0.0503,0.442439 0.0168,0.150179 0.0336,0.30295 0.0503,0.457933 0.0168,0.154983 0.0336,0.312191 0.0503,0.471237 0.0168,0.159046 0.0336,0.319941 0.0503,0.48229 0.0168,0.162348 0.0336,0.326159 0.0503,0.491034 0.0168,0.164875 0.0336,0.33082 0.0503,0.497433 0.0168,0.166613 0.0336,0.333898 0.0503,0.501453 0.0168,0.167554 0.0335,0.33538 0.0503,0.503074 0.0168,0.167695 0.0335,0.335259 0.0503,0.502292 0.0168,0.167033 0.0336,0.333533 0.0503,0.499107 0.0168,0.165573 0.0336,0.330214 0.0503,0.493535 0.0168,0.163322 0.0336,0.325316 0.0503,0.485605 0.0168,0.160289 0.0336,0.318862 0.0503,0.475352 0.0168,0.15649 0.0335,0.310884 0.0503,0.462827 0.0168,0.151943 0.0335,0.30142 0.0503,0.448089 0.0168,0.146669 0.0335,0.290514 0.0503,0.431208 0.0168,0.140694 0.0335,0.278219 0.0503,0.412266 0.0168,0.134046 0.0335,0.264594 0.0503,0.391352 0.0168,0.126758 0.0335,0.249704 0.0503,0.368568 0.0168,0.118863 0.0335,0.23362 0.0503,0.344021 0.0168,0.1104 0.0335,0.216419 0.0503,0.317829 0.0168,0.10141 0.0335,0.198184 0.0503,0.290118 0.0168,0.09193 0.0335,0.179001 0.0503,0.26102 0.0168,0.08202 0.0335,0.158962 0.0503,0.230674 0.0168,0.07171 0.0335,0.138162 0.0503,0.199224 0.0168,0.06106 0.0335,0.116703 0.0503,0.166823 0.0168,0.05012 0.0335,0.09468 0.0503,0.133623 0.0168,0.03894 0.0335,0.07221 0.0503,0.09978 0.0168,0.02757 0.0336,0.0494 0.0503,0.06547 0.0168,0.01607 0.0336,0.02635 0.0503,0.03084 0.0168,0.0045 0.0336,0.0032 0.0503,-0.0039 0.0168,-0.0071 0.0336,-0.02002 0.0503,-0.03869 0.0168,-0.01867 0.0336,-0.04312 0.0503,-0.07326 0.0168,-0.03014 0.0335,-0.06601 0.0503,-0.107485 0.0168,-0.04147 0.0335,-0.08859 0.0503,-0.141193 0.0168,-0.05261 0.0336,-0.110739 0.0503,-0.174226 0.0168,-0.06349 0.0336,-0.132361 0.0503,-0.206426 0.0168,-0.07406 0.0336,-0.15335 0.0503,-0.237638 0.0168,-0.08429 0.0336,-0.173607 0.0503,-0.267715 0.0168,-0.09411 0.0336,-0.193033 0.0503,-0.296511 0.0168,-0.103479 0.0336,-0.211537 0.0503,-0.323891 0.0168,-0.112354 0.0336,-0.229028 0.0503,-0.34972 0.0168,-0.120693 0.0335,-0.245426 0.0503,-0.373879 0.0168,-0.128454 0.0335,-0.260649 0.0503,-0.39625 0.0168,-0.1356 0.0336,-0.274626 0.0503,-0.416725 0.0168,-0.1421 0.0336,-0.287291 0.0503,-0.43521 0.0168,-0.147918 0.0336,-0.298581 0.0503,-0.451612 0.0168,-0.15303 0.0336,-0.308444 0.0503,-0.465855 0.0168,-0.157411 0.0336,-0.316833 0.0503,-0.477872 0.0168,-0.161039 0.0335,-0.323706 0.0503,-0.487603 0.0168,-0.163897 0.0335,-0.329032 0.0503,-0.495003 0.0168,-0.165971 0.0335,-0.332784 0.0503,-0.500036 0.0168,-0.167253 0.0335,-0.334946 0.0503,-0.50268 0.0168,-0.167733 0.0335,-0.335505 0.0503,-0.502918 0.0168,-0.167412 0.0335,-0.334461 0.0503,-0.500752 0.0168,-0.166291 0.0335,-0.331819 0.0503,-0.496194 0.0168,-0.164374 0.0335,-0.327588 0.0503,-0.489261 0.0168,-0.161672 0.0335,-0.321793 0.0503,-0.47999 0.0168,-0.158196 0.0335,-0.314458 0.0503,-0.468423 0.0168,-0.153965 0.0335,-0.30562 0.0503,-0.454618 0.0168,-0.148997 0.0335,-0.295321 0.0503,-0.438638 0.0168,-0.143317 0.0335,-0.28361 0.0503,-0.420562 0.0168,-0.136952 0.0335,-0.270542 0.0503,-0.400474 0.0168,-0.129932 0.0335,-0.256182 0.0503,-0.378472 0.0168,-0.12229 0.0336,-0.240596 0.0503,-0.35466 0.0168,-0.114064 0.0336,-0.22386 0.0503,-0.329153 0.0168,-0.105292 0.0336,-0.206054 0.0503,-0.302071 0.0168,-0.09602 0.0336,-0.187263 0.0503,-0.273546 0.0168,-0.08628 0.0335,-0.167576 0.0503,-0.243713 0.0168,-0.07614 0.0335,-0.147087 0.0503,-0.212713 0.0168,-0.06563 0.0336,-0.125897 0.0503,-0.180699 0.0168,-0.0548 0.0336,-0.104103 0.0503,-0.147818 0.0168,-0.04372 0.0336,-0.08181 0.0503,-0.114233 0.0168,-0.03242 0.0336,-0.05913 0.0503,-0.0801 0.0168,-0.02097 0.0336,-0.03617 0.0503,-0.04558 0.0168,-0.0094 0.0336,-0.01303 0.0503,-0.01085 0.0168,0.0022 0.0336,0.01017 0.0503,0.02393 0.0168,0.01376 0.0335,0.03332 0.0503,0.05861 0.0168,0.02528 0.0335,0.05632 0.0503,0.093 0.0168,0.03668 0.0336,0.07904 0.0503,0.126942 0.0168,0.0479 0.0336,0.101384 0.0503,0.160281 0.0168,0.0589 0.0336,0.123244 0.0503,0.192854 0.0168,0.06961 0.0336,0.144515 0.0503,0.224505 0.0168,0.07999 0.0336,0.165095 0.0503,0.255082 0.0168,0.08999 0.0336,0.184886 0.0503,0.28444 0.0168,0.09955 0.0335,0.203792 0.0503,0.312437 0.0168,0.108646 0.0335,0.221725 0.0503,0.338942 0.0168,0.117217 0.0336,0.238596 0.0503,0.363825 0.0168,0.125228 0.0336,0.254327 0.0503,0.386968 0.0168,0.132641 0.0335,0.268843 0.0503,0.408262 0.0168,0.139419 0.0335,0.282074 0.0503,0.427604 0.0168,0.145531 0.0335,0.293955 0.0503,0.444901 0.0168,0.150947 0.0335,0.304431 0.0503,0.460072 0.0168,0.15564 0.0335,0.31345 0.0503,0.473041 0.0168,0.159591 0.0335,0.320973 0.0503,0.48375 0.0168,0.162778 0.0335,0.32696 0.0503,0.492146 0.0168,0.165186 0.0335,0.331383 0.0503,0.498189 0.0168,0.166805 0.0335,0.334222 0.0503,0.501849 0.0168,0.167627 0.0335,0.335464 0.0503,0.50311 0.0168,0.167647 0.0335,0.335102 0.0503,0.501967 0.0168,0.166865 0.0336,0.333136 0.0503,0.498422 0.0168,0.165285 0.0336,0.329579 0.0503,0.492495 0.0168,0.162916 0.0336,0.324445 0.0503,0.484213 0.0168,0.159767 0.0335,0.317761 0.0503,0.473615 0.0168,0.155855 0.0335,0.309558 0.0503,0.460755 0.0168,0.151197 0.0336,0.299873 0.0503,0.445689 0.0168,0.145817 0.0336,0.288756 0.0503,0.428495 0.0168,0.139738 0.0336,0.276257 0.0503,0.40925 0.0168,0.132992 0.0336,0.262438 0.0503,0.388049 0.0168,0.125611 0.0336,0.247364 0.0503,0.364993 0.0168,0.117628 0.0336,0.231107 0.0503,0.340191 0.0168,0.109084 0.0335,0.213746 0.0503,0.313764 0.0168,0.100018 0.0335,0.195363 0.0503,0.285836 0.0168,0.09047 0.0336,0.176045 0.0503,0.256541 0.0168,0.0805 0.0336,0.155885 0.0503,0.226019 0.0168,0.07014 0.0336,0.134981 0.0503,0.194418 0.0168,0.05944 0.0336,0.113431 0.0503,0.161887 0.0168,0.04846 0.0336,0.09134 0.0503,0.128581 0.0168,0.03724 0.0336,0.06881 0.0503,0.09466 0.0168,0.02585 0.0336,0.04595 0.0503,0.06029 0.0168,0.01434 0.0335,0.02287 0.0503,0.02563 0.0168,0.0028 0.0335,-3.13e-4 0.0503,-0.0092 0.0168,-0.0088 0.0336,-0.0235 0.0503,-0.0439 0.0168,-0.0204 0.0336,-0.04657 0.0503,-0.07843 0.0168,-0.03186 0.0336,-0.06942 0.0503,-0.112582 0.0168,-0.04316 0.0335,-0.09194 0.0503,-0.146198 0.0168,-0.05426 0.0335,-0.114021 0.0503,-0.179116 0.0168,-0.0651 0.0335,-0.135555 0.0503,-0.211177 0.0168,-0.07562 0.0335,-0.156441 0.0503,-0.242229 0.0168,-0.08579 0.0335,-0.176579 0.0503,-0.272123 0.0168,-0.09554 0.0335,-0.195871 0.0503,-0.300715 0.0168,-0.104843 0.0335,-0.214228 0.0503,-0.327869 0.0168,-0.113641 0.0335,-0.231562 0.0503,-0.353456 0.0168,-0.121895 0.0335,-0.247788 0.0503,-0.377354 0.0168,-0.129566 0.0335,-0.262828 0.0503,-0.399446 0.0168,-0.136618 0.0335,-0.276613 0.0503,-0.41963 0.0168,-0.143016 0.0336,-0.289074 0.0503,-0.437806 0.0168,-0.148731 0.0335,-0.300153 0.0503,-0.453889 0.0168,-0.153736 0.0335,-0.309798 0.0503,-0.467803 0.0168,-0.158004 0.0335,-0.317961 0.0503,-0.479479 0.0168,-0.161518 0.0335,-0.324605 0.0503,-0.488864 0.0168,-0.164258 0.0336,-0.329696 0.0503,-0.49591 0.0168,-0.166214 0.0336,-0.333211 0.0503,-0.500586 0.0168,-0.167375 0.0336,-0.335132 0.0503,-0.502868 0.0168,-0.167737 0.0336,-0.335452 0.0503,-0.502747 0.0168,-0.167295 0.0336,-0.334167 0.0503,-0.50022 0.0168,-0.166054 0.0335,-0.331285 0.0503,-0.495304 0.0168,-0.164018 0.0335,-0.326818 0.0503,-0.488017 0.0168,-0.1612 0.0336,-0.32079 0.0503,-0.478399 0.0168,-0.15761 0.0336,-0.313227 0.0503,-0.466493 0.0168,-0.153266 0.0336,-0.304167 0.0503,-0.452356 0.0168,-0.14819 0.0336,-0.293652 0.0503,-0.436057 0.0168,-0.142405 0.0336,-0.281733 0.0503,-0.417672 0.0168,-0.13594 0.0336,-0.268468 0.0503,-0.397292 0.0168,-0.128823 0.0336,-0.253919 0.0503,-0.37501 0.0168,-0.121092 0.0335,-0.238156 0.0503,-0.350937 0.0168,-0.112781 0.0335,-0.221254 0.0503,-0.325185 0.0168,-0.103931 0.0336,-0.203294 0.0503,-0.297879 0.0168,-0.09458 0.0336,-0.184362 0.0503,-0.269147 0.0168,-0.08479 0.0336,-0.16455 0.0503,-0.239131 0.0168,-0.07458 0.0336,-0.143949 0.0503,-0.207969 0.0168,-0.06402 0.0335,-0.122661 0.0503,-0.175815 0.0168,-0.05315 0.0335,-0.100786 0.0503,-0.142818 0.0168,-0.04203 0.0335,-0.07843 0.0503,-0.10914 0.0168,-0.03071 0.0335,-0.0557 0.0503,-0.07494 0.0168,-0.01924 0.0335,-0.0327 0.0503,-0.04038 0.0168,-0.0077 0.0335,-0.0095 0.0503,-0.0056 0.0168,0.0039 0.0335,0.01365 0.0503,0.02915 0.0168,0.0155 0.0335,0.03679 0.0503,0.06379 0.0168,0.027 0.0335,0.05975 0.0503,0.09812 0.0168,0.03838 0.0335,0.08242 0.0503,0.131989 0.0168,0.04957 0.0335,0.104698 0.0503,0.165223 0.0168,0.06052 0.0335,0.126477 0.0503,0.197667 0.0168,0.07119 0.0335,0.147651 0.0503,0.229167 0.0168,0.08152 0.0335,0.168118 0.0503,0.25957 0.0168,0.09145 0.0335,0.187782 0.0503,0.288732 0.0168,0.10095 0.0335,0.206548 0.0503,0.316514 0.0168,0.109966 0.0336,0.224327 0.0503,0.342783 0.0168,0.118456 0.0336,0.241033 0.0503,0.367413 0.0168,0.126379 0.0336,0.256586 0.0503,0.390285 0.0168,0.133699 0.0336,0.270913 0.0503,0.411292 0.0168,0.14038 0.0335,0.283944 0.0503,0.430333 0.0168,0.146389 0.0335,0.295618 0.0503,0.447316 0.0168,0.151697 0.0336,0.305878 0.0503,0.46216 0.0168,0.156281 0.0336,0.314676 0.0503,0.474794 0.0168,0.160118 0.0336,0.32197 0.0503,0.485159 0.0168,0.163189 0.0336,0.327724 0.0503,0.493204 0.0168,0.16548 0.0336,0.331911 0.0503,0.498891 0.0168,0.166979 0.0336,0.334511 0.0503,0.502191 0.0168,0.167681 0.0335,0.335512 0.0503,0.503093 0.0168,0.16758 0.0335,0.334908 0.0503,0.501587 0.0168,0.166678 0.0336,0.332704 0.0503,0.497684 0.0168,0.16498 0.0336,0.328908 0.0503,0.491401 0.0168,0.162492 0.0336,0.32354 0.0503,0.482769 0.0168,0.159228 0.0336,0.316625 0.0503,0.471828 0.0168,0.155203 0.0336,0.308197 0.0503,0.458632 0.0168,0.150435 0.0336,0.298295 0.0503,0.443242 0.0168,0.144948 0.0335,0.286967 0.0503,0.425735 0.0168,0.138768 0.0335,0.274265 0.0503,0.40619 0.0168,0.131924 0.0335,0.260254 0.0503,0.384704 0.0168,0.12445 0.0336,0.244998 0.0503,0.361379 0.0168,0.116381 0.0336,0.22857 0.0503,0.336325 0.0168,0.107756 0.0335,0.21105 0.0503,0.309664 0.0168,0.09861 0.0335,0.192521 0.0503,0.281523 0.0168,0.089 0.0335,0.17307 0.0503,0.252034 0.0168,0.07896 0.0335,0.152793 0.0503,0.221342 0.0168,0.06855 0.0335,0.131785 0.0503,0.18959 0.0168,0.05781 0.0335,0.110147 0.0503,0.156933 0.0168,0.04679 0.0335,0.08798 0.0503,0.123525 0.0168,0.03554 0.0335,0.0654 0.0503,0.08953 0.0168,0.02413 0.0335,0.0425 0.0503,0.0551 0.0168,0.0126 0.0335,0.0194 0.0503,0.02041 0.0168,0.001 0.0335,-0.0038 0.0503,-0.01438 0.0168,-0.01058 0.0336,-0.02697 0.0503,-0.0491 0.0168,-0.02213 0.0336,-0.05002 0.0503,-0.08358 0.0168,-0.03356 0.0335,-0.07283 0.0503,-0.117665 0.0168,-0.04484 0.0335,-0.09529 0.0503,-0.151188 0.0168,-0.0559 0.0336,-0.11729 0.0503,-0.183987 0.0168,-0.0667 0.0336,-0.138733 0.0503,-0.215906 0.0168,-0.07717 0.0336,-0.159513 0.0503,-0.246794 0.0168,-0.08728 0.0336,-0.17953 0.0503,-0.2765 0.0168,-0.09697 0.0336,-0.198689 0.0503,-0.304886 0.0168,-0.106196 0.0336,-0.216898 0.0503,-0.331813 0.0168,-0.114915 0.0336,-0.23407 0.0503,-0.357154 0.0168,-0.123084 0.0335,-0.250122 0.0503,-0.380787 0.0168,-0.130665 0.0335,-0.264979 0.0503,-0.4026 0.0168,-0.137621 0.0336,-0.278569 0.0503,-0.422488 0.0168,-0.143919 0.0336,-0.290827 0.0503,-0.440356 0.0168,-0.149529 0.0336,-0.301694 0.0503,-0.456118 0.0168,-0.154424 0.0336,-0.311119 0.0503,-0.4697 0.0168,-0.15858 0.0336,-0.319056 0.0503,-0.481035 0.0168,-0.161979 0.0336,-0.325469 0.0503,-0.490071 0.0168,-0.164603 0.0336,-0.330325 0.0503,-0.496764 0.0168,-0.16644 0.0335,-0.333601 0.0503,-0.501082 0.0168,-0.167481 0.0335,-0.335282 0.0503,-0.503004 0.0168,-0.167721 0.0336,-0.33536 0.0503,-0.50252 0.0168,-0.16716 0.0336,-0.333836 0.0503,-0.499635 0.0168,-0.165798 0.0336,-0.330714 0.0503,-0.49436 0.0168,-0.163645 0.0335,-0.326012 0.0503,-0.486721 0.0168,-0.16071 0.0335,-0.319752 0.0503,-0.476757 0.0168,-0.157005 0.0335,-0.311961 0.0503,-0.464511 0.0168,-0.152551 0.0335,-0.30268 0.0503,-0.450046 0.0168,-0.147366 0.0335,-0.291951 0.0503,-0.433428 0.0168,-0.141477 0.0335,-0.279827 0.0503,-0.414739 0.0168,-0.134911 0.0335,-0.266364 0.0503,-0.394065 0.0168,-0.127702 0.0335,-0.251629 0.0503,-0.371509 0.0168,-0.11988 0.0335,-0.235689 0.0503,-0.347175 0.0168,-0.111487 0.0335,-0.218624 0.0503,-0.321183 0.0168,-0.102559 0.0335,-0.200512 0.0503,-0.293653 0.0168,-0.09314 0.0336,-0.181443 0.0503,-0.264721 0.0168,-0.08328 0.0335,-0.161505 0.0503,-0.234523 0.0168,-0.07302 0.0335,-0.140795 0.0503,-0.203202 0.0168,-0.06241 0.0335,-0.119413 0.0503,-0.170912 0.0168,-0.0515 0.0336,-0.09746 0.0503,-0.137803 0.0168,-0.04034 0.0336,-0.07504 0.0503,-0.104036 0.0168,-0.029 0.0336,-0.05226 0.0503,-0.06977 0.0168,-0.01751 0.0336,-0.02923 0.0503,-0.03517 0.0168,-0.0059 0.0336,-0.0061 0.0503,-4.06e-4 0.0168,0.0057 0.0336,0.01713 0.0503,0.03436 0.0168,0.01723 0.0335,0.04025 0.0503,0.06897 0.0168,0.02872 0.0335,0.06317 0.0503,0.103241 0.0168,0.04007 0.0336,0.08579 0.0503,0.137021 0.0168,0.05123 0.0336,0.108002 0.0503,0.170148 0.0168,0.06214 0.0336,0.129696 0.0503,0.202459 0.0168,0.07276 0.0336,0.15077 0.0503,0.233804 0.0168,0.08303 0.0336,0.171123 0.0503,0.26403 0.0168,0.09291 0.0336,0.190658 0.0503,0.292994 0.0168,0.102335 0.0335,0.209281 0.0503,0.320556 0.0168,0.111275 0.0335,0.226905 0.0503,0.346588 0.0168,0.119682 0.0335,0.243442 0.0503,0.37096 0.0168,0.127518 0.0336,0.258817 0.0503,0.39356 0.0168,0.134744 0.0336,0.272953 0.0503,0.414278 0.0168,0.141325 0.0336,0.285785 0.0503,0.433016 0.0168,0.14723 0.0336,0.297249 0.0503,0.449682 0.0168,0.152432 0.0335,0.307293 0.0503,0.464199 0.0168,0.156905 0.0335,0.315868 0.0503,0.476496 0.0168,0.160628 0.0335,0.322932 0.0503,0.486516 0.0168,0.163583 0.0335,0.328452 0.0503,0.494208 0.0168,0.165756 0.0335,0.332403 0.0503,0.499539 0.0168,0.167136 0.0335,0.334763 0.0503,0.50248 0.0168,0.167717 0.0335,0.335524 0.0503,0.50302 0.0168,0.167496 0.0335,0.334679 0.0503,0.501154 0.0168,0.166474 0.0335,0.332235 0.0503,0.496892 0.0168,0.164657 0.0335,0.328202 0.0503,0.490254 0.0168,0.162052 0.0335,0.322601 0.0503,0.481273 0.0168,0.158672 0.0335,0.315456 0.0503,0.46999 0.0168,0.154534 0.0335,0.306804 0.0503,0.45646 0.0168,0.149657 0.0335,0.296684 0.0503,0.440748 0.0168,0.144064 0.0335,0.285146 0.0503,0.422928 0.0168,0.137783 0.0336,0.272245 0.0503,0.403087 0.0168,0.130842 0.0336,0.258042 0.0503,0.381318 0.0168,0.123276 0.0336,0.242604 0.0503,0.357725 0.0168,0.115121 0.0336,0.226008 0.0503,0.332423 0.0168,0.106415 0.0335,0.208331 0.0503,0.305532 0.0168,0.0972 0.0335,0.189657 0.0503,0.277178 0.0168,0.08752 0.0335,0.170078 0.0503,0.247501 0.0168,0.07742 0.0336,0.149684 0.0503,0.21664 0.0168,0.06696 0.0336,0.128574 0.0503,0.184742 0.0168,0.05617 0.0336,0.106851 0.0503,0.151962 0.0168,0.04511 0.0336,0.08462 0.0503,0.118456 0.0168,0.03384 0.0336,0.06198 0.0503,0.08438 0.0168,0.0224 0.0336,0.03904 0.0503,0.0499 0.0168,0.01086 0.0335,0.01592 0.0503,0.01519 0.0168,-7.3e-4 0.0335,-0.0073 0.0503,-0.0196 0.0168,-0.01232 0.0336,-0.03044 0.0503,-0.05429 0.0168,-0.02385 0.0336,-0.05346 0.0503,-0.08873 0.0168,-0.03527 0.0336,-0.07622 0.0503,-0.122737 0.0168,-0.04652 0.0336,-0.09862 0.0503,-0.156161 0.0168,-0.05754 0.0336,-0.120547 0.0503,-0.188838 0.0168,-0.06829 0.0336,-0.141897 0.0503,-0.220612 0.0168,-0.07872 0.0335,-0.162569 0.0503,-0.251331 0.0168,-0.08876 0.0335,-0.182463 0.0503,-0.280849 0.0168,-0.09839 0.0335,-0.201485 0.0503,-0.309024 0.0168,-0.107539 0.0336,-0.219543 0.0503,-0.335721 0.0168,-0.116177 0.0335,-0.236552 0.0503,-0.360813 0.0168,-0.124261 0.0335,-0.252431 0.0503,-0.38418 0.0168,-0.13175 0.0335,-0.267102 0.0503,-0.405711 0.0168,-0.138609 0.0335,-0.280495 0.0503,-0.425301 0.0168,-0.144805 0.0335,-0.292548 0.0503,-0.442858 0.0168,-0.150309 0.0335,-0.303202 0.0503,-0.458297 0.0168,-0.155095 0.0335,-0.312407 0.0503,-0.471546 0.0168,-0.159139 0.0335,-0.320117 0.0503,-0.482539 0.0168,-0.162423 0.0335,-0.326298 0.0503,-0.491227 0.0168,-0.164928 0.0335,-0.330917 0.0503,-0.497564 0.0168,-0.166647 0.0335,-0.333955 0.0503,-0.501523 0.0168,-0.167568 0.0336,-0.335397 0.0503,-0.503085 0.0168,-0.167688 0.0336,-0.335234 0.0503,-0.50224 0.0168,-0.167006 0.0336,-0.333469 0.0503,-0.498995 0.0168,-0.165526 0.0335,-0.330109 0.0503,-0.493363 0.0168,-0.163255 0.0335,-0.325172 0.0503,-0.485374 0.0168,-0.160202 0.0336,-0.318678 0.0503,-0.475062 0.0168,-0.156384 0.0336,-0.310663 0.0503,-0.462481 0.0168,-0.151818 0.0336,-0.30116 0.0503,-0.447687 0.0168,-0.146526 0.0336,-0.290219 0.0503,-0.430752 0.0168,-0.140534 0.0336,-0.27789 0.0503,-0.41176 0.0168,-0.13387 0.0336,-0.264232 0.0503,-0.390797 0.0168,-0.126566 0.0336,-0.249311 0.0503,-0.367967 0.0168,-0.118656 0.0335,-0.233198 0.0503,-0.343377 0.0168,-0.110179 0.0335,-0.21597 0.0503,-0.317145 0.0168,-0.101176 0.0336,-0.197709 0.0503,-0.289397 0.0168,-0.09169 0.0336,-0.178503 0.0503,-0.260266 0.0168,-0.08176 0.0336,-0.158443 0.0503,-0.229889 0.0168,-0.07145 0.0336,-0.137626 0.0503,-0.198414 0.0168,-0.06079 0.0336,-0.116151 0.0503,-0.16599 0.0168,-0.04984 0.0336,-0.09412 0.0503,-0.132773 0.0168,-0.03865 0.0335,-0.07164 0.0503,-0.09892 0.0168,-0.02728 0.0335,-0.04882 0.0503,-0.0646 0.0168,-0.01578 0.0335,-0.02576 0.0503,-0.02996 0.0168,-0.0042 0.0336,-0.0026 0.0503,0.0048 0.0168,0.0074 0.0336,0.02061 0.0503,0.03957 0.0168,0.01896 0.0335,0.0437 0.0503,0.07414 0.0168,0.03043 0.0335,0.06659 0.0503,0.108347 0.0168,0.04176 0.0335,0.08915 0.0503,0.14204 0.0168,0.05288 0.0335,0.111294 0.0503,0.175053 0.0168,0.06376 0.0335,0.132901 0.0503,0.20723 0.0168,0.07433 0.0335,0.153873 0.0503,0.238415 0.0168,0.08454 0.0335,0.17411 0.0503,0.268462 0.0168,0.09435 0.0335,0.193514 0.0503,0.297223 0.0168,0.10371 0.0335,0.211993 0.0503,0.324565 0.0168,0.112572 0.0335,0.229458 0.0503,0.350354 0.0168,0.120897 0.0335,0.245827 0.0503,0.374469 0.0168,0.128642 0.0336,0.261019 0.0503,0.396792 0.0168,0.135774 0.0336,0.274964 0.0503,0.41722 0.0168,0.142255 0.0335,0.287594 0.0503,0.435651 0.0168,0.148057 0.0335,0.298849 0.0503,0.452 0.0168,0.153151 0.0335,0.308675 0.0503,0.466188 0.0168,0.157512 0.0336,0.317025 0.0503,0.478147 0.0168,0.161121 0.0336,0.32386 0.0503,0.487819 0.0168,0.16396 0.0336,0.329147 0.0503,0.49516 0.0168,0.166014 0.0336,0.332859 0.0503,0.500133 0.0168,0.167275 0.0336,0.33498 0.0503,0.502715 0.0168,0.167735 0.0335,0.335499 0.0503,0.502893 0.0168,0.167394 0.0335,0.334415 0.0503,0.500667 0.0168,0.166252 0.0335,0.331731 0.0503,0.496046 0.0168,0.164316 0.0336,0.327462 0.0503,0.489055 0.0168,0.161594 0.0336,0.321626 0.0503,0.479725 0.0168,0.158099 0.0336,0.314253 0.0503,0.468101 0.0168,0.153848 0.0336,0.305377 0.0503,0.454239 0.0168,0.148862 0.0336,0.295042 0.0503,0.438206 0.0168,0.143164 0.0336,0.283295 0.0503,0.420077 0.0168,0.136781 0.0335,0.270194 0.0503,0.399939 0.0168,0.129746 0.0335,0.255802 0.0503,0.37789 0.0168,0.122089 0.0336,0.240186 0.0503,0.354034 0.0168,0.113848 0.0336,0.223422 0.0503,0.328485 0.0168,0.105064 0.0336,0.20559 0.0503,0.301366 0.0168,0.09578 0.0336,0.186774 0.0503,0.272805 0.0168,0.08603 0.0335,0.167066 0.0503,0.24294 0.0168,0.07587 0.0335,0.146559 0.0503,0.211915 0.0168,0.06535 0.0335,0.12535 0.0503,0.179874 0.0168,0.05452 0.0335,0.103544 0.0503,0.146975 0.0168,0.04343 0.0335,0.08124 0.0503,0.113373 0.0168,0.03213 0.0335,0.05855 0.0503,0.07923 0.0168,0.02068 0.0335,0.03558 0.0503,0.04471 0.0168,0.0091 0.0335,0.01244 0.0503,0.01 0.0168,-0.0025 0.0335,-0.01076 0.0503,-0.02482 0.0168,-0.01405 0.0335,-0.03391 0.0503,-0.05948 0.0168,-0.02557 0.0335,-0.0569 0.0503,-0.09386 0.0168,-0.03697 0.0335,-0.07961 0.0503,-0.127796 0.0168,-0.04818 0.0335,-0.101944 0.0503,-0.161117 0.0168,-0.05917 0.0335,-0.123791 0.0503,-0.193668 0.0168,-0.06988 0.0335,-0.145046 0.0503,-0.225294 0.0168,-0.08025 0.0335,-0.165607 0.0503,-0.255842 0.0168,-0.09024 0.0335,-0.185377 0.0503,-0.285167 0.0168,-0.09979 0.0335,-0.20426 0.0503,-0.313129 0.0168,-0.108869 0.0335,-0.222165 0.0503,-0.339593 0.0168,-0.117427 0.0335,-0.239009 0.0503,-0.364433 0.0168,-0.125424 0.0335,-0.254711 0.0503,-0.387532 0.0168,-0.13282 0.0335,-0.269195 0.0503,-0.408777 0.0168,-0.139582 0.0335,-0.282391 0.0503,-0.428068 0.0168,-0.145677 0.0335,-0.294238 0.0503,-0.445312 0.0168,-0.151075 0.0335,-0.304678 0.0503,-0.460428 0.0168,-0.15575 0.0335,-0.31366 0.0503,-0.473341 0.0168,-0.159681 0.0335,-0.321143 0.0503,-0.483992 0.0168,-0.162848 0.0335,-0.327091 0.0503,-0.492328 0.0168,-0.165237 0.0335,-0.331475 0.0503,-0.498311 0.0168,-0.166836 0.0335,-0.334274 0.0503,-0.501911 0.0168,-0.167637 0.0335,-0.335474 0.0503,-0.503111 0.0168,-0.167637 0.0335,-0.335071 0.0503,-0.501906 0.0168,-0.166835 0.0335,-0.333066 0.0503,-0.498301 0.0168,-0.165235 0.0335,-0.329469 0.0503,-0.492314 0.0168,-0.162846 0.0336,-0.324295 0.0503,-0.483973 0.0168,-0.159677 0.0336,-0.317572 0.0503,-0.473317 0.0168,-0.155746 0.0336,-0.30933 0.0503,-0.460399 0.0168,-0.15107 0.0335,-0.299609 0.0503,-0.44528 0.0168,-0.145671 0.0335,-0.288456 0.0503,-0.428032 0.0168,-0.139575 0.0335,-0.275923 0.0503,-0.408736 0.0168,-0.132813 0.0336,-0.262071 0.0503,-0.387487 0.0168,-0.125416 0.0336,-0.246966 0.0503,-0.364385 0.0168,-0.117419 0.0336,-0.230681 0.0503,-0.339541 0.0168,-0.108861 0.0336,-0.213293 0.0503,-0.313074 0.0168,-0.09978 0.0336,-0.194884 0.0503,-0.285109 0.0168,-0.09023 0.0336,-0.175544 0.0503,-0.255782 0.0168,-0.08024 0.0335,-0.155365 0.0503,-0.225231 0.0168,-0.06987 0.0335,-0.134443 0.0503,-0.193604 0.0168,-0.05916 0.0336,-0.112878 0.0503,-0.161051 0.0168,-0.04817 0.0336,-0.09077 0.0503,-0.127728 0.0168,-0.03696 0.0336,-0.06823 0.0503,-0.09379 0.0168,-0.02556 0.0336,-0.04537 0.0503,-0.05941 0.0168,-0.01404 0.0336,-0.02229 0.0503,-0.02475 0.0168,-0.0025 0.0336,9.02e-4 0.0503,0.01004 0.0168,0.0091 0.0335,0.02409 0.0503,0.04478 0.0168,0.02069 0.0335,0.04716 0.0503,0.0793 0.0168,0.03214 0.0335,0.07 0.0503,0.113441 0.0168,0.04344 0.0336,0.09251 0.0503,0.147042 0.0168,0.05453 0.0336,0.114574 0.0503,0.17994 0.0168,0.06537 0.0335,0.136093 0.0503,0.211978 0.0168,0.07589 0.0335,0.15696 0.0503,0.243002 0.0168,0.08604 0.0335,0.177078 0.0503,0.272864 0.0168,0.09578 0.0335,0.196349 0.0503,0.301421 0.0168,0.105073 0.0335,0.214681 0.0503,0.328538 0.0168,0.113857 0.0335,0.231987 0.0503,0.354084 0.0168,0.122096 0.0335,0.248183 0.0503,0.377936 0.0168,0.129753 0.0335,0.263193 0.0503,0.399982 0.0168,0.136789 0.0335,0.276945 0.0503,0.420115 0.0168,0.143171 0.0335,0.289373 0.0503,0.43824 0.0168,0.148868 0.0335,0.300417 0.0503,0.45427 0.0168,0.153853 0.0335,0.310023 0.0503,0.468126 0.0168,0.158103 0.0335,0.318149 0.0503,0.479746 0.0168,0.161597 0.0335,0.324753 0.0503,0.489071 0.0168,0.164318 0.0335,0.329805 0.0503,0.496059 0.0168,0.166253 0.0335,0.333279 0.0503,0.500673 0.0168,0.167395 0.0335,0.33516 0.0503,0.502895 0.0168,0.167735 0.0335,0.335439 0.0503,0.502712 0.0168,0.167274 0.0335,0.334114 0.0503,0.500126 0.0168,0.166012 0.0335,0.33119 0.0503,0.495147 0.0168,0.163957 0.0335,0.326685 0.0503,0.487803 0.0168,0.161118 0.0335,0.320616 0.0503,0.478125 0.0168,0.157509 0.0335,0.313015 0.0503,0.466162 0.0168,0.153146 0.0335,0.303917 0.0503,0.451969 0.0168,0.148052 0.0335,0.293367 0.0503,0.435616 0.0168,0.142249 0.0335,0.281414 0.0503,0.41718 0.0168,0.135767 0.0335,0.268115 0.0503,0.39675 0.0168,0.128634 0.0335,0.253533 0.0503,0.374421 0.0168,0.120888 0.0335,0.237741 0.0503,0.350305 0.0168,0.112563 0.0335,0.220811 0.0503,0.324511 0.0168,0.1037 0.0335,0.202826 0.0503,0.297167 0.0168,0.09434 0.0335,0.183871 0.0503,0.268402 0.0168,0.08453 0.0335,0.164037 0.0503,0.238354 0.0168,0.07432 0.0335,0.143418 0.0503,0.207166 0.0168,0.06375 0.0335,0.122113 0.0503,0.174988 0.0168,0.05287 0.0335,0.100225 0.0503,0.141972 0.0168,0.04175 0.0335,0.07786 0.0503,0.108279 0.0168,0.03042 0.0335,0.05512 0.0503,0.07407 0.0168,0.01895 0.0335,0.03211 0.0503,0.0395 0.0168,0.0074 0.0335,0.009 0.0503,0.0047 0.0168,-0.0042 0.0335,-0.01424 0.0503,-0.03003 0.0168,-0.01579 0.0335,-0.03737 0.0503,-0.06466 0.0168,-0.02729 0.0335,-0.06033 0.0503,-0.09899 0.0168,-0.03866 0.0335,-0.08299 0.0503,-0.13284 0.0168,-0.04985 0.0335,-0.105258 0.0503,-0.166056 0.0168,-0.0608 0.0335,-0.127022 0.0503,-0.198479 0.0168,-0.07146 0.0335,-0.148178 0.0503,-0.229951 0.0168,-0.08177 0.0336,-0.168627 0.0503,-0.260325 0.0168,-0.0917 0.0335,-0.18827 0.0503,-0.289455 0.0168,-0.101185 0.0335,-0.207011 0.0503,-0.317199 0.0168,-0.110188 0.0335,-0.224764 0.0503,-0.343428 0.0168,-0.118664 0.0336,-0.241441 0.0503,-0.368015 0.0168,-0.126573 0.0336,-0.256964 0.0503,-0.390841 0.0168,-0.133877 0.0336,-0.271259 0.0503,-0.4118 0.0168,-0.14054 0.0336,-0.284257 0.0503,-0.430789 0.0168,-0.146532 0.0336,-0.295896 0.0503,-0.447719 0.0168,-0.151823 0.0335,-0.306119 0.0503,-0.462507 0.0168,-0.156389 0.0335,-0.314881 0.0503,-0.475086 0.0168,-0.160206 0.0335,-0.322135 0.0503,-0.485392 0.0168,-0.163257 0.0336,-0.327849 0.0503,-0.493377 0.0168,-0.165528 0.0336,-0.331997 0.0503,-0.499004 0.0168,-0.167007 0.0336,-0.334556 0.0503,-0.502244"
       style="fill:none;stroke:#000000;stroke-width:0.26458332;stroke-opacity:1"
       inkscape:connector-curvature="0" />
    <text
       xml:space="preserve"
       style="font-style:normal;font-weight:normal;font-size:1.41111112px;line-height:1.25;font-family:sans-serif;letter-spacing:0px;word-spacing:0px;fill:#000000;fill-opacity:1;stroke:none;stroke-width:0.26458332"
       x="98.653259"
       y="1.8399388"
       id="text4767"><tspan
         sodipodi:role="line"
         id="tspan4765"
         x="98.653259"
         y="1.8399388"
         style="font-size:2.11666656px;stroke-width:0.26458332">Abtastzeitpunkte</tspan></text>
    <text
       xml:space="preserve"
       style="font-style:normal;font-weight:normal;font-size:1.41111112px;line-height:1.25;font-family:sans-serif;letter-spacing:0px;word-spacing:0px;fill:#000000;fill-opacity:1;stroke:none;stroke-width:0.26458332"
       x="84.189896"
       y="15.832447"
       id="text4771"><tspan
         sodipodi:role="line"
         id="tspan4769"
         x="84.189896"
         y="15.832447"
         style="stroke-width:0.26458332">ausreichende Abtastfrequenz</tspan></text>
    <path
       style="fill:none;stroke:#f93000;stroke-width:0.0516063px;stroke-linecap:butt;stroke-linejoin:miter;stroke-opacity:1"
       d="M 124.49749,28.527751 V 28.29389"
       id="path4698-6"
       inkscape:connector-curvature="0" />
    <path
       style="fill:none;stroke:#f93000;stroke-width:0.16500001;stroke-linecap:butt;stroke-linejoin:miter;stroke-miterlimit:4;stroke-dasharray:none;stroke-opacity:1"
       d="m 84.523986,21.311473 c 2.394238,7.49452 4.788527,14.989202 6.854371,13.975633 2.065843,-1.01357 3.803058,-10.53484 5.913279,-12.433571 2.110221,-1.89873 4.593674,3.825473 7.077114,9.549623"
       id="path4846"
       inkscape:connector-curvature="0"
       inkscape:path-effect="#path-effect4848"
       inkscape:original-d="m 84.523986,21.311473 c 2.394556,7.494418 4.788845,14.989101 7.182869,22.484048 1.737556,-9.521947 3.47477,-19.043217 5.211757,-28.564429 2.483564,5.723575 4.967018,11.447779 7.450138,17.172066" />
    <text
       xml:space="preserve"
       style="font-style:normal;font-weight:normal;font-size:1.41111112px;line-height:1.25;font-family:sans-serif;letter-spacing:0px;word-spacing:0px;fill:#000000;fill-opacity:1;stroke:none;stroke-width:0.26458332"
       x="84.005203"
       y="38.464279"
       id="text4852"><tspan
         sodipodi:role="line"
         x="84.005203"
         y="38.464279"
         style="stroke-width:0.26458332"
         id="tspan4854">zu niedrige Abtastfrequenz</tspan></text>
  </g>
</svg>
